<svg width="32" height="32" viewBox="0 0 32 32" fill="none" xmlns="http://www.w3.org/2000/svg">
  <path d="M16 4C14.8 4 13.6667 4.13333 12.6 4.4L13.2 7.2L11 8L10 4.8C7.2 6 5 8.26667 3.6 11.2L6.4 12.8L5.2 14.4L2.4 12.8C2.13333 13.8667 2 15 2 16.2C2 16.4 2 16.6 2 16.8V17.2C2 17.4 2 17.6 2 17.8C2.13333 19 2.4 20.1333 2.8 21.2L5.6 19.6L6.8 21.2L4 22.8C5.33333 25.7333 7.6 28 10.4 29.2L11.4 26L13.6 26.8L12.8 30C13.8667 30.2667 15 30.4 16.2 30.4C22.9333 30.2667 28.2667 24.8 28.4 18.0667V16C28.4 9.26667 22.9333 3.86667 16.2 4C16.1333 4 16.0667 4 16 4Z" fill="white"/>
  <rect x="14" y="1" width="4" height="3" rx="1" fill="white"/>
  <rect x="20" y="2" width="4" height="3" rx="1" transform="rotate(30 20 2)" fill="white"/>
  <rect x="25" y="6" width="4" height="3" rx="1" transform="rotate(60 25 6)" fill="white"/>
  <rect x="28" y="12" width="4" height="3" rx="1" transform="rotate(90 28 12)" fill="white"/>
</svg>
